<svg width="33" height="33" viewBox="0 0 33 33" fill="none" xmlns="http://www.w3.org/2000/svg">
<path fill-rule="evenodd" clip-rule="evenodd" d="M0 1.57088C0 0.703309 0.696915 0 1.5566 0H5.12517C5.82815 0 6.44388 0.475479 6.62765 1.16023L8.00763 6.3023H31.4434C31.9115 6.3023 32.3548 6.51493 32.6504 6.88129C32.946 7.24764 33.0626 7.7288 32.9677 8.19145L30.2913 21.2462C30.1563 21.9046 29.6211 22.4033 28.96 22.4867L11.1172 24.7375C10.3475 24.8346 9.6244 24.345 9.42163 23.5894L3.93407 3.14177H1.5566C0.696915 3.14177 0 2.43846 0 1.57088ZM8.85079 9.44407L12.073 21.4507L27.4684 19.5086L29.5318 9.44407H8.85079ZM14.1651 28.2873C13.7352 28.2873 13.3868 28.639 13.3868 29.0728C13.3868 29.5066 13.7352 29.8582 14.1651 29.8582C14.5949 29.8582 14.9434 29.5066 14.9434 29.0728C14.9434 28.639 14.5949 28.2873 14.1651 28.2873ZM10.2736 29.0728C10.2736 26.9038 12.0159 25.1456 14.1651 25.1456C16.3143 25.1456 18.0566 26.9038 18.0566 29.0728C18.0566 31.2417 16.3143 33 14.1651 33C12.0159 33 10.2736 31.2417 10.2736 29.0728ZM26.6179 28.2873C26.1881 28.2873 25.8396 28.639 25.8396 29.0728C25.8396 29.5066 26.1881 29.8582 26.6179 29.8582C27.0478 29.8582 27.3962 29.5066 27.3962 29.0728C27.3962 28.639 27.0478 28.2873 26.6179 28.2873ZM22.7264 29.0728C22.7264 26.9038 24.4687 25.1456 26.6179 25.1456C28.7671 25.1456 30.5094 26.9038 30.5094 29.0728C30.5094 31.2417 28.7671 33 26.6179 33C24.4687 33 22.7264 31.2417 22.7264 29.0728Z" fill="white"/>
</svg>
